<?xml version="1.0" encoding="UTF-8" standalone="no"?>
<svg
   xmlns:dc="http://purl.org/dc/elements/1.1/"
   xmlns:cc="http://creativecommons.org/ns#"
   xmlns:rdf="http://www.w3.org/1999/02/22-rdf-syntax-ns#"
   xmlns:svg="http://www.w3.org/2000/svg"
   xmlns="http://www.w3.org/2000/svg"
   xmlns:sodipodi="http://sodipodi.sourceforge.net/DTD/sodipodi-0.dtd"
   xmlns:inkscape="http://www.inkscape.org/namespaces/inkscape"
   width="190mm"
   height="57mm"
   viewBox="0 0 190 57"
   version="1.1"
   id="svg8"
   inkscape:version="1.0.1 (3bc2e813f5, 2020-09-07)"
   sodipodi:docname="logo.svg">
  <defs
     id="defs2">
    <rect
       x="91.406181"
       y="12.027129"
       width="78.57724"
       height="62.808338"
       id="rect3647" />
    <rect
       x="24.856066"
       y="7.7508163"
       width="142.45467"
       height="42.495853"
       id="rect3641" />
    <rect
       x="2.2678571"
       y="88.257439"
       width="41.199406"
       height="24.379463"
       id="rect1455" />
    <rect
       x="-2.6458333"
       y="15.119048"
       width="136.4494"
       height="85.422623"
       id="rect1440" />
    <rect
       x="12.65794"
       y="28.587202"
       width="2.0456214"
       height="3.072094"
       id="rect27" />
    <rect
       x="22.266163"
       y="31.659298"
       width="2.6035187"
       height="4.7153082"
       id="rect21" />
    <rect
       x="18.142857"
       y="20.410713"
       width="13.985119"
       height="14.741071"
       id="rect12" />
  </defs>
  <sodipodi:namedview
     id="base"
     pagecolor="#ffffff"
     bordercolor="#666666"
     borderopacity="1.0"
     inkscape:pageopacity="0.0"
     inkscape:pageshadow="2"
     inkscape:zoom="0.98994949"
     inkscape:cx="491.50224"
     inkscape:cy="163.32873"
     inkscape:document-units="mm"
     inkscape:current-layer="layer1"
     inkscape:document-rotation="0"
     showgrid="false"
     inkscape:window-width="1920"
     inkscape:window-height="1001"
     inkscape:window-x="-9"
     inkscape:window-y="41"
     inkscape:window-maximized="1" />
  <metadata
     id="metadata5">
    <rdf:RDF>
      <cc:Work
         rdf:about="">
        <dc:format>image/svg+xml</dc:format>
        <dc:type
           rdf:resource="http://purl.org/dc/dcmitype/StillImage" />
        <dc:title></dc:title>
      </cc:Work>
    </rdf:RDF>
  </metadata>
  <g
     inkscape:label="Layer 1"
     inkscape:groupmode="layer"
     id="layer1">
    <path
       id="path1459"
       style="font-style:normal;font-variant:normal;font-weight:bold;font-stretch:normal;font-size:10.5833px;line-height:1.25;font-family:sans-serif;-inkscape-font-specification:'sans-serif Bold';white-space:pre;fill:#ffffff;fill-opacity:1;stroke:none;stroke-width:2.51323"
       d="m 7.7480123,18.185622 c -0.5517101,0.08567 -0.1051723,0.528515 -0.00835,0.846247 L 14.71404,15.590194 10.038504,25.603501 C 7.8076775,24.864603 5.1867721,25.297914 3.4206256,26.884806 1.1931158,28.698245 0.44232543,31.984772 1.555169,34.614347 c 1.1996497,3.26802 5.1924336,5.054242 8.446603,3.881215 2.525116,-0.785638 4.392755,-3.168043 4.615821,-5.79296 0.321682,-2.799089 -1.323806,-5.631603 -3.864772,-6.813385 l 4.649559,-9.974347 1.759518,7.199074 c -0.03219,0.566708 0.495516,0.192764 0.825014,0.151835 l -1.975593,-8.071964 c -0.03737,-0.400264 -0.180337,-0.712258 -0.608937,-0.785467 z m 4.5413217,9.655232 c 2.128344,2.207595 2.246881,6.066262 0.08319,8.2909 -1.996766,2.367145 -5.8772417,2.703108 -8.2629508,0.741679 -2.04042,-1.520069 -2.8863463,-4.369864 -2.0375302,-6.763075 0.7440304,-2.466625 3.2245385,-4.169757 5.7715657,-4.156186 1.6471838,0.0058 3.2995933,0.702442 4.4457133,1.886682 z"
       sodipodi:nodetypes="ccccccccccccccccccccc" />
    <g
       aria-label="GAY"
       transform="matrix(2.4340048,0,0,2.4340048,-38.649506,-5.8652113)"
       id="text3639"
       style="font-style:normal;font-variant:normal;font-weight:bold;font-stretch:normal;font-size:10.5833px;line-height:1.25;font-family:sans-serif;-inkscape-font-specification:'sans-serif Bold';white-space:pre;shape-inside:url(#rect3641);fill:#ffffff;fill-opacity:1;stroke:none">
      <path
         id="path3651"
         style="font-style:normal;font-variant:normal;font-weight:bold;font-stretch:normal;font-family:sans-serif;-inkscape-font-specification:'sans-serif Bold';fill:#ffffff"
         d="m 32.643082,16.966217 c -1.803124,0.649721 -3.991927,0.988112 -5.697692,-0.103312 -1.618334,-1.091138 -1.909254,-3.404373 -1.202846,-5.109067 0.637631,-1.511526 2.325757,-2.2508526 3.89298,-2.1928303 1.029248,-0.013026 2.058622,0.2140856 2.976553,0.6821263 v 1.803502 c -0.708168,-0.107583 -1.211444,-0.580623 -1.986468,-0.95803 -1.182601,-0.339967 -2.677202,0.185493 -3.033559,1.451296 -0.373787,1.216608 -0.07893,2.904447 1.250505,3.395636 0.47951,0.09232 1.774981,0.589181 1.785153,-0.11032 v -1.205133 h -1.534785 v -1.452103 h 3.550159 z"
         sodipodi:nodetypes="ccccccccccccccc" />
      <path
         id="path3653"
         style="font-style:normal;font-variant:normal;font-weight:bold;font-stretch:normal;font-family:sans-serif;-inkscape-font-specification:'sans-serif Bold';fill:#ffffff"
         d="m 41.531401,17.405465 c -0.683849,0 -1.367699,0 -2.051548,0 -0.177422,-0.518485 -0.354844,-1.036971 -0.532266,-1.555456 -0.950843,0 -1.901687,0 -2.85253,0 -0.177422,0.518485 -0.354843,1.036971 -0.532265,1.555456 -0.666624,0 -1.333248,0 -1.999872,0 0.947398,-2.564865 1.894797,-5.129731 2.842195,-7.6945962 0.761364,0 1.522727,0 2.284091,0 0.947398,2.5648652 1.894797,5.1297312 2.842195,7.6945962 z m -3.064403,-2.966218 c -0.315225,-0.919837 -0.630451,-1.839675 -0.945676,-2.759512 -0.315225,0.919837 -0.63045,1.839675 -0.945675,2.759512 0.63045,0 1.260901,0 1.891351,0 z" />
      <path
         id="path3655"
         style="font-style:normal;font-variant:normal;font-weight:bold;font-stretch:normal;font-family:sans-serif;-inkscape-font-specification:'sans-serif Bold';fill:#ffffff"
         d="m 49.406864,9.7108688 c -0.945676,1.5726812 -1.891351,3.1453622 -2.837027,4.7180432 0,0.992184 0,1.984369 0,2.976553 -0.661456,0 -1.322913,0 -1.984369,0 -0.01734,-0.973258 0.03469,-1.965715 -0.02603,-2.926968 -0.952502,-1.589209 -1.905003,-3.178419 -2.857504,-4.7676282 0.751028,0 1.502057,0 2.253085,0 0.554659,0.9921842 1.109317,1.9843692 1.663976,2.9765532 0.535711,-0.992184 1.071421,-1.984369 1.607132,-2.9765532 0.726913,0 1.453825,0 2.180737,0 z" />
    </g>
    <g
       aria-label="SCRIPT"
       transform="matrix(2.7990141,0,0,2.7990141,-172.8311,-25.534519)"
       id="text3645"
       style="font-style:normal;font-weight:normal;font-size:10.5833px;line-height:1.25;font-family:sans-serif;white-space:pre;shape-inside:url(#rect3647);fill:#ffffff;fill-opacity:1;stroke:none">
      <path
         d="m 96.134628,16.070766 v -0.144693 q 0,-0.155029 0.05684,-0.222208 0.06201,-0.06718 0.160197,-0.06718 0.09819,0 0.155029,0.06718 0.06201,0.06718 0.06201,0.222208 v 1.105872 q 0,0.155029 -0.06201,0.222208 -0.05684,0.06718 -0.155029,0.06718 -0.09302,0 -0.155029,-0.06201 -0.05684,-0.06201 -0.06201,-0.201537 -0.02584,-0.434081 -0.449583,-0.780312 -0.418578,-0.346231 -1.100705,-0.346231 -0.7183,0 -1.142045,0.372069 -0.423745,0.366902 -0.423745,0.868162 0,0.258381 0.118855,0.470254 0.118855,0.211872 0.315225,0.346231 0.19637,0.12919 0.444416,0.211872 0.248046,0.07751 0.775144,0.165364 0.883664,0.144694 1.21956,0.294555 0.449584,0.201538 0.676959,0.558104 0.232543,0.356566 0.232543,0.842323 0,0.744138 -0.594277,1.271236 -0.594277,0.521931 -1.601964,0.521931 -1.13171,0 -1.808669,-0.707965 v 0.248046 q 0,0.155029 -0.06201,0.222208 -0.05684,0.06718 -0.155029,0.06718 -0.09302,0 -0.155029,-0.06718 -0.06201,-0.06718 -0.06201,-0.222208 v -1.19889 q 0,-0.160196 0.05684,-0.227375 0.06201,-0.06718 0.160196,-0.06718 0.09302,0 0.149861,0.06201 0.06201,0.06201 0.06718,0.201538 0.02584,0.475421 0.506427,0.868161 0.485757,0.387572 1.302242,0.387572 0.816485,0 1.286739,-0.408243 0.475422,-0.408242 0.475422,-0.966346 0,-0.341063 -0.180867,-0.604612 -0.180867,-0.268717 -0.537433,-0.423746 -0.248047,-0.10852 -1.033526,-0.242878 -1.080034,-0.180867 -1.555455,-0.552936 -0.475422,-0.372069 -0.475422,-1.059364 0,-0.682126 0.542601,-1.173051 0.547768,-0.490924 1.441768,-0.490924 0.909502,0 1.56579,0.573606 z"
         style="font-style:normal;font-variant:normal;font-weight:normal;font-stretch:normal;font-family:monospace;-inkscape-font-specification:monospace;fill:#ffffff"
         id="path3658" />
      <path
         d="m 102.84221,16.230963 v -0.30489 q 0,-0.155029 0.0568,-0.222208 0.062,-0.06718 0.1602,-0.06718 0.0982,0 0.15503,0.06718 0.062,0.06718 0.062,0.222208 v 1.204057 q 0,0.160196 -0.062,0.227375 -0.0568,0.06718 -0.15503,0.06718 -0.0879,0 -0.14986,-0.06201 -0.0568,-0.06201 -0.0672,-0.201538 -0.0258,-0.43408 -0.47026,-0.769976 -0.59944,-0.459919 -1.36425,-0.459919 -0.50126,0 -0.94568,0.222208 -0.330723,0.160197 -0.527093,0.39274 -0.341064,0.403075 -0.542601,0.893999 -0.144694,0.361734 -0.144694,0.816485 v 0.759641 q 0,0.971514 0.702798,1.689814 0.7028,0.713133 1.63297,0.713133 0.5581,0 0.99735,-0.242879 0.44442,-0.242878 0.85783,-0.733803 0.0879,-0.10852 0.19637,-0.10852 0.093,0 0.14986,0.05684 0.0568,0.05684 0.0568,0.144694 0,0.118855 -0.22221,0.361734 -0.42374,0.475421 -0.95601,0.7183 -0.52709,0.237711 -1.0697,0.237711 -0.47025,0 -0.95601,-0.180867 -0.372065,-0.139526 -0.614944,-0.325561 -0.242878,-0.186034 -0.599444,-0.625283 -0.351399,-0.444416 -0.48059,-0.816485 -0.12919,-0.377237 -0.12919,-0.82682 v -0.883664 q 0,-0.640786 0.341063,-1.30741 0.346231,-0.671791 0.940508,-1.028358 0.599447,-0.361733 1.297077,-0.361733 1.07486,0 1.85001,0.733803 z"
         style="font-style:normal;font-variant:normal;font-weight:normal;font-stretch:normal;font-family:monospace;-inkscape-font-specification:monospace;fill:#ffffff"
         id="path3660" />
      <path
         d="m 105.87044,18.985308 v 2.26342 h 0.80098 q 0.1602,0 0.22737,0.06201 0.0672,0.05684 0.0672,0.155029 0,0.09302 -0.0672,0.155028 -0.0672,0.06201 -0.22737,0.06201 h -1.81901 q -0.15502,0 -0.2222,-0.06201 -0.0672,-0.06201 -0.0672,-0.155028 0,-0.09819 0.0672,-0.155029 0.0672,-0.06201 0.2222,-0.06201 h 0.58395 v -5.177962 h -0.58395 q -0.15502,0 -0.2222,-0.05684 -0.0672,-0.06201 -0.0672,-0.160196 0,-0.09819 0.0672,-0.155029 0.0672,-0.06201 0.2222,-0.06201 h 2.62516 q 0.81132,0 1.36425,0.516762 0.55811,0.511595 0.55811,1.157549 0,0.465086 -0.34623,0.878496 -0.34107,0.408243 -1.14722,0.682127 0.46509,0.320393 0.79582,0.723468 0.33072,0.403075 1.05936,1.65364 h 0.33073 q 0.15503,0 0.22221,0.06201 0.0672,0.05684 0.0672,0.155029 0,0.09302 -0.0672,0.155028 -0.0672,0.06201 -0.22221,0.06201 h -0.57878 q -0.80615,-1.441768 -1.25056,-1.932693 -0.43925,-0.490924 -1.01286,-0.764808 z m 0,-0.434081 h 1.18338 q 0.56844,0 1.02836,-0.206705 0.46509,-0.206705 0.67179,-0.485757 0.21188,-0.279052 0.21188,-0.568439 0,-0.434081 -0.43925,-0.82682 -0.43408,-0.39274 -1.05937,-0.39274 h -1.59679 z"
         style="font-style:normal;font-variant:normal;font-weight:normal;font-stretch:normal;font-family:monospace;-inkscape-font-specification:monospace;fill:#ffffff"
         id="path3662" />
      <path
         d="m 113.85442,16.070766 v 5.177962 h 1.48828 q 0.15503,0 0.2222,0.06201 0.0672,0.05684 0.0672,0.155029 0,0.09302 -0.0672,0.155028 -0.0672,0.06201 -0.2222,0.06201 h -3.41064 q -0.15503,0 -0.2222,-0.06201 -0.0672,-0.06201 -0.0672,-0.155028 0,-0.09819 0.0672,-0.155029 0.0672,-0.06201 0.2222,-0.06201 h 1.48828 v -5.177962 h -1.48828 q -0.15503,0 -0.2222,-0.05684 -0.0672,-0.06201 -0.0672,-0.160196 0,-0.09819 0.0672,-0.155029 0.0672,-0.06201 0.2222,-0.06201 h 3.41064 q 0.15503,0 0.2222,0.06201 0.0672,0.05684 0.0672,0.155029 0,0.09819 -0.0672,0.160196 -0.0672,0.05684 -0.2222,0.05684 z"
         style="font-style:normal;font-variant:normal;font-weight:normal;font-stretch:normal;font-family:monospace;-inkscape-font-specification:monospace;fill:#ffffff"
         id="path3664" />
      <path
         d="m 119.04272,19.202348 v 2.04638 h 1.48827 q 0.15503,0 0.22221,0.06201 0.0672,0.05684 0.0672,0.155029 0,0.09302 -0.0672,0.155028 -0.0672,0.06201 -0.22221,0.06201 h -2.50629 q -0.15503,0 -0.22221,-0.06201 -0.0672,-0.06201 -0.0672,-0.155028 0,-0.09819 0.0672,-0.155029 0.0672,-0.06201 0.22221,-0.06201 h 0.58394 v -5.177962 h -0.58394 q -0.15503,0 -0.22221,-0.05684 -0.0672,-0.06201 -0.0672,-0.160196 0,-0.09819 0.0672,-0.155029 0.0672,-0.06201 0.22221,-0.06201 h 2.5218 q 0.894,0 1.45727,0.527097 0.56844,0.527098 0.56844,1.235063 0,0.418578 -0.18604,0.754474 -0.18086,0.335896 -0.43925,0.527098 -0.38757,0.289387 -0.80098,0.423745 -0.29972,0.09819 -0.74414,0.09819 z m 0,-0.434081 h 1.38492 q 0.48059,0 0.89917,-0.211872 0.42374,-0.217041 0.61495,-0.527098 0.19637,-0.310058 0.19637,-0.630451 0,-0.511595 -0.43925,-0.919837 -0.43925,-0.408243 -1.11104,-0.408243 h -1.54512 z"
         style="font-style:normal;font-variant:normal;font-weight:normal;font-stretch:normal;font-family:monospace;-inkscape-font-specification:monospace;fill:#ffffff"
         id="path3666" />
      <path
         d="m 126.55128,16.070766 v 5.177962 h 1.12654 q 0.15503,0 0.22221,0.06201 0.0672,0.05684 0.0672,0.155029 0,0.09302 -0.0672,0.155028 -0.0672,0.06201 -0.22221,0.06201 h -2.69233 q -0.15503,0 -0.22221,-0.06201 -0.0672,-0.06201 -0.0672,-0.155028 0,-0.09819 0.0672,-0.155029 0.0672,-0.06201 0.22221,-0.06201 h 1.12654 v -5.177962 h -1.77766 v 1.50378 q 0,0.160196 -0.062,0.227375 -0.0569,0.06718 -0.15503,0.06718 -0.093,0 -0.15503,-0.06718 -0.062,-0.06718 -0.062,-0.227375 v -1.93786 h 4.86273 v 1.93786 q 0,0.160196 -0.062,0.227375 -0.0568,0.06718 -0.15503,0.06718 -0.0982,0 -0.16019,-0.06718 -0.0568,-0.06718 -0.0568,-0.227375 v -1.50378 z"
         style="font-style:normal;font-variant:normal;font-weight:normal;font-stretch:normal;font-family:monospace;-inkscape-font-specification:monospace;fill:#ffffff"
         id="path3668" />
    </g>
  </g>
</svg>
