<?xml version="1.0" encoding="UTF-8" standalone="no"?>
<svg
   xmlns:dc="http://purl.org/dc/elements/1.1/"
   xmlns:cc="http://creativecommons.org/ns#"
   xmlns:rdf="http://www.w3.org/1999/02/22-rdf-syntax-ns#"
   xmlns:svg="http://www.w3.org/2000/svg"
   xmlns="http://www.w3.org/2000/svg"
   xmlns:sodipodi="http://sodipodi.sourceforge.net/DTD/sodipodi-0.dtd"
   xmlns:inkscape="http://www.inkscape.org/namespaces/inkscape"
   version="1.1"
   id="Capa_1"
   x="0px"
   y="0px"
   viewBox="0 0 384.97 384.97"
   style="enable-background:new 0 0 384.97 384.97;"
   xml:space="preserve"
   sodipodi:docname="fullscreen.svg"
   inkscape:version="1.0.1 (3bc2e813f5, 2020-09-07)"><metadata
   id="metadata1580"><rdf:RDF><cc:Work
       rdf:about=""><dc:format>image/svg+xml</dc:format><dc:type
         rdf:resource="http://purl.org/dc/dcmitype/StillImage" /></cc:Work></rdf:RDF></metadata><defs
   id="defs1578" /><sodipodi:namedview
   pagecolor="#ffffff"
   bordercolor="#666666"
   borderopacity="1"
   objecttolerance="10"
   gridtolerance="10"
   guidetolerance="10"
   inkscape:pageopacity="0"
   inkscape:pageshadow="2"
   inkscape:window-width="1920"
   inkscape:window-height="1001"
   id="namedview1576"
   showgrid="false"
   inkscape:zoom="2.1560121"
   inkscape:cx="192.485"
   inkscape:cy="266.69609"
   inkscape:window-x="-9"
   inkscape:window-y="41"
   inkscape:window-maximized="1"
   inkscape:current-layer="g1543"
   inkscape:document-rotation="0" />
<g
   id="g1543">
	<g
   id="Fullscreen"
   style="fill:#ffffff">
		<path
   d="M 384.97,12.03 C 384.97,5.317 379.653,0 372.94,0 H 264.847 c -6.833,0 -11.922,5.39 -11.934,12.223 0,6.821 5.101,11.838 11.934,11.838 h 96.062 l -0.193,96.519 c 0,6.833 5.197,12.03 12.03,12.03 6.833,-0.012 12.03,-5.197 12.03,-12.03 l 0.193,-108.369 c 0,-0.036 -0.012,-0.06 -0.012,-0.084 0.001,-0.037 0.013,-0.061 0.013,-0.097 z"
   id="path1522"
   style="fill:#ffffff" />
		<path
   d="M 120.496,0 H 12.403 C 12.367,0 12.343,0.012 12.307,0.012 12.283,0.012 12.247,0 12.223,0 5.51,0 0.192,5.317 0.192,12.03 L 0,120.399 c 0,6.833 5.39,11.934 12.223,11.934 6.821,0 11.838,-5.101 11.838,-11.934 L 24.253,24.06 h 96.242 c 6.833,0 12.03,-5.197 12.03,-12.03 C 132.514,5.197 127.317,0 120.496,0 Z"
   id="path1524"
   style="fill:#ffffff" />
		<path
   d="M 120.123,360.909 H 24.061 v -96.242 c 0,-6.833 -5.197,-12.03 -12.03,-12.03 C 5.198,252.637 0,257.833 0,264.667 v 108.092 c 0,0.036 0.012,0.06 0.012,0.084 0,0.036 -0.012,0.06 -0.012,0.096 0,6.713 5.317,12.03 12.03,12.03 h 108.092 c 6.833,0 11.922,-5.39 11.934,-12.223 10e-4,-6.82 -5.1,-11.837 -11.933,-11.837 z"
   id="path1526"
   style="fill:#ffffff" />
		<path
   d="m 372.747,252.913 c -6.833,0 -11.85,5.101 -11.838,11.934 v 96.062 h -96.242 c -6.833,0 -12.03,5.197 -12.03,12.03 0,6.833 5.197,12.03 12.03,12.03 h 108.092 c 0.036,0 0.06,-0.012 0.084,-0.012 0.036,-0.012 0.06,0.012 0.096,0.012 6.713,0 12.03,-5.317 12.03,-12.03 V 264.847 c 0.001,-6.833 -5.389,-11.934 -12.222,-11.934 z"
   id="path1528"
   style="fill:#ffffff" />
	</g>
	
	
	
	
	
	
</g>















</svg>
